<svg
    version="1.1"
    id="layer"
    xmlns="http://www.w3.org/2000/svg"
    xmlns:xlink="http://www.w3.org/1999/xlink"
    x="0px"
    y="0px"
    viewBox="20 216 600 213"
    style="enable-background:new 0 0 652 652;"
    xml:space="preserve"
>
    <style type="text/css">
        .st0 {
            fill: #edeae5;
        }
        .st1 {
            fill: #edeae5;
        }
    </style>
    <path
        class="st0"
        d="M346.6,271.4h14.5c3.5,0,6.8,0.4,10,1.2c3.2,0.8,5.9,2.1,8.3,3.8c2.4,1.7,4.2,4,5.6,6.8
c1.4,2.8,2.1,6.2,2.1,10.2c0,3.6-0.7,6.7-2,9.4c-1.3,2.7-3.1,5-5.4,6.8c-2.3,1.8-4.9,3.2-7.9,4.2c-3,0.9-6.1,1.4-9.4,1.4h-15.8
V271.4z M356.3,306.3h5c2.2,0,4.3-0.2,6.2-0.7c1.9-0.5,3.6-1.2,5-2.2c1.4-1.1,2.5-2.5,3.3-4.2c0.8-1.7,1.2-3.8,1.2-6.3
c0-2.1-0.4-4-1.2-5.6c-0.8-1.6-1.9-2.9-3.2-4c-1.4-1-3-1.8-4.8-2.3c-1.8-0.5-3.7-0.8-5.8-0.8h-5.7V306.3z"
    />
    <path
        class="st0"
        d="M393.6,271.4h17c2.2,0,4.3,0.2,6.3,0.7c2,0.4,3.8,1.1,5.3,2.2c1.5,1,2.7,2.4,3.6,4.1c0.9,1.7,1.4,3.8,1.4,6.4
c0,3.1-0.8,5.7-2.4,7.9c-1.6,2.1-4,3.5-7.1,4.1l11.1,18.5h-11.6l-9.2-17.5h-4.8v17.5h-9.7V271.4z M403.3,289.5h5.7
c0.9,0,1.8,0,2.7-0.1c1-0.1,1.9-0.3,2.7-0.6c0.8-0.3,1.4-0.8,1.9-1.5c0.5-0.7,0.8-1.6,0.8-2.8c0-1.1-0.2-2-0.7-2.7
c-0.5-0.7-1-1.2-1.7-1.5c-0.7-0.4-1.5-0.6-2.4-0.7c-0.9-0.1-1.8-0.2-2.7-0.2h-6.3V289.5z"
    />
    <path
        class="st0"
        d="M448.2,271.4h8l19.1,43.9h-10.9l-3.8-9.3h-17l-3.7,9.3h-10.7L448.2,271.4z M451.9,284.2l-5.3,13.6h10.7
L451.9,284.2z"
    />
    <path
        class="st0"
        d="M519.4,312.2c-2.8,1.5-5.8,2.6-8.9,3.2c-3.1,0.7-6.3,1-9.5,1c-3.4,0-6.6-0.5-9.5-1.6c-2.9-1.1-5.4-2.6-7.5-4.6
c-2.1-2-3.8-4.5-5-7.3c-1.2-2.8-1.7-6-1.7-9.5c0-3.5,0.6-6.7,1.7-9.5c1.2-2.8,2.8-5.3,5-7.2c2.1-2,4.6-3.6,7.5-4.6
c2.9-1.1,6-1.6,9.5-1.6c3.5,0,6.7,0.4,9.7,1.3c3,0.8,5.6,2.3,7.8,4.3l-6.8,7.4c-1.3-1.4-2.8-2.4-4.5-3.1c-1.7-0.7-3.7-1.1-6.2-1.1
c-2.1,0-3.9,0.4-5.6,1.1c-1.7,0.7-3.1,1.7-4.3,3c-1.2,1.2-2.1,2.7-2.8,4.5c-0.6,1.7-0.9,3.6-0.9,5.6c0,2.1,0.3,4,0.9,5.7
c0.7,1.7,1.6,3.2,2.8,4.5c1.2,1.2,2.6,2.2,4.3,2.9c1.7,0.7,3.6,1.1,5.6,1.1c2.1,0,3.9-0.2,5.5-0.7c1.5-0.5,2.7-1,3.7-1.5v-7.1h-7.9
v-8.9h17.2V312.2z"
    />
    <path
        class="st0"
        d="M525.5,293.3c0-3.5,0.6-6.7,1.7-9.5c1.2-2.8,2.8-5.3,5-7.2c2.1-2,4.6-3.6,7.5-4.6c2.9-1.1,6-1.6,9.5-1.6
c3.4,0,6.6,0.5,9.5,1.6c2.9,1.1,5.4,2.6,7.5,4.6c2.1,2,3.7,4.4,4.9,7.2c1.2,2.8,1.8,6,1.8,9.5c0,3.5-0.6,6.7-1.8,9.5
c-1.2,2.8-2.8,5.3-4.9,7.3c-2.1,2-4.6,3.5-7.5,4.6c-2.9,1.1-6.1,1.6-9.5,1.6c-3.4,0-6.6-0.5-9.5-1.6c-2.9-1.1-5.4-2.6-7.5-4.6
c-2.1-2-3.8-4.5-5-7.3C526.1,300,525.5,296.8,525.5,293.3z M535.6,293.3c0,2.1,0.3,4,0.9,5.7c0.7,1.7,1.6,3.2,2.8,4.5
c1.2,1.2,2.6,2.2,4.3,2.9c1.7,0.7,3.6,1.1,5.6,1.1s3.9-0.4,5.6-1.1c1.7-0.7,3.1-1.7,4.3-2.9c1.2-1.3,2.1-2.8,2.7-4.5
c0.7-1.7,1-3.6,1-5.7c0-2-0.3-3.9-1-5.6c-0.6-1.7-1.5-3.2-2.7-4.5c-1.2-1.3-2.6-2.3-4.3-3c-1.7-0.7-3.5-1.1-5.6-1.1
s-3.9,0.4-5.6,1.1c-1.7,0.7-3.1,1.7-4.3,3c-1.2,1.2-2.1,2.7-2.8,4.5C535.9,289.4,535.6,291.3,535.6,293.3z"
    />
    <path
        class="st0"
        d="M579.4,271.4h13.1l18.6,30.5h0.1v-30.5h9.7v43.9h-12.6L589.2,284h-0.1v31.2h-9.7V271.4z"
    />
    <path
        class="st0"
        d="M344.6,358.5c0-5,1.8-9.3,5.5-12.9c3.7-3.6,8.1-5.4,13.2-5.4c5.1,0,9.4,1.8,13,5.4c3.6,3.6,5.5,8,5.5,13.1
c0,5.1-1.8,9.5-5.5,13c-3.7,3.6-8.1,5.4-13.3,5.4c-4.6,0-8.7-1.6-12.4-4.8C346.6,368.8,344.6,364.2,344.6,358.5z M350,358.6
c0,3.9,1.3,7.2,4,9.7c2.6,2.5,5.7,3.8,9.1,3.8c3.7,0,6.9-1.3,9.4-3.9c2.6-2.6,3.8-5.8,3.8-9.5c0-3.8-1.3-7-3.8-9.5
c-2.5-2.6-5.6-3.9-9.4-3.9c-3.7,0-6.8,1.3-9.4,3.9C351.3,351.7,350,354.8,350,358.6z"
    />
    <path
        class="st0"
        d="M393.9,362v14.4h-5.4v-35.6h6.1c3,0,5.2,0.2,6.8,0.6c1.5,0.4,2.9,1.2,4.1,2.4c2,2,3.1,4.5,3.1,7.6
c0,3.3-1.1,5.8-3.3,7.7c-2.2,1.9-5.1,2.9-8.8,2.9H393.9z M393.9,357h2c4.9,0,7.4-1.9,7.4-5.7c0-3.7-2.5-5.5-7.6-5.5h-1.8V357z"
    />
    <path class="st0" d="M423.9,345.9v30.5h-5.4v-30.5h-8.2v-5H432v5H423.9z" />
    <path class="st0" d="M442.2,340.9v35.6h-5.4v-35.6H442.2z" />
    <path
        class="st0"
        d="M449,358.5c0-5,1.8-9.3,5.5-12.9c3.7-3.6,8.1-5.4,13.2-5.4c5.1,0,9.4,1.8,13,5.4c3.6,3.6,5.5,8,5.5,13.1
c0,5.1-1.8,9.5-5.5,13c-3.7,3.6-8.1,5.4-13.3,5.4c-4.6,0-8.7-1.6-12.4-4.8C451,368.8,449,364.2,449,358.5z M454.4,358.6
c0,3.9,1.3,7.2,4,9.7c2.6,2.5,5.7,3.8,9.1,3.8c3.7,0,6.9-1.3,9.4-3.9c2.6-2.6,3.8-5.8,3.8-9.5c0-3.8-1.3-7-3.8-9.5
c-2.5-2.6-5.6-3.9-9.4-3.9c-3.7,0-6.8,1.3-9.4,3.9C455.7,351.7,454.4,354.8,454.4,358.6z"
    />
    <path class="st0" d="M492.9,376.5v-38l25.9,27.1v-24.7h5.4v37.7l-25.9-27.1v24.9H492.9z" />
    <path
        class="st1"
        d="M210.9,216.4H75.9H21l54.9,25.8v61.9c16.3,4.3,28.3-0.7,45.3-7.9h0c9.1-3.9,19.6-8.3,33-12.3
c27.1-6.2,54.2,2.5,55.2,14.9c0.3,3.5-2.8,6.3-6.3,6.3c-2,0-4.4-0.9-5.5-2.4c-2.1,5.2-6.4,9.7-11.8,9.7c-3.2,0-5.5-2.5-5.5-5.5
c0-1.3,0.4-2.4,1.3-3.1c0,1.9,1.5,3.4,3.4,3.4s3.4-1.5,3.4-3.4s-1.5-3.4-3.4-3.4c-4.8,0-8.7,3.9-8.7,8.6c0,4.8,3.6,8.7,8.4,8.7
c4.5,0,9.5-2.1,12.1-5.9c1.6,0.4,3.8,0.7,5.5,0.7c7.3,0,12.1-3.6,14.6-9c2.9,1.3,9.8,2.5,17.5,2.5c1.4-1.6,3.2-3,5.4-4.2
c4.6-2.5,9.6-3,13.2-1.8c1.2,0,2.1-1.1,2.1-2.4c0-1.3-0.9-2.1-2.1-2.1c-1.5,0-4.1,0.5-7.2,1.2h0c-5.2,1.1-11.7,2.4-16.4,1.9
c-8.8-0.9-16.9-8.1-21.4-12.1l0,0c-1-0.9-1.8-1.6-2.4-2.1c-6.4-4.9-12.7-5-19.9-5.1l-13.1,0c-5.1,0-10.5-1.3-11.8-5.5
c4.7,1.9,7.7,2.9,27.6,3c10.3,0,19.9,4.4,26.5,11.4c5.2,5.1,12.4,7.6,20.2,7.7c11.1,0,17.7-3.2,23.1-5.8c2.4-1.2,4.6-2.2,6.8-2.8
c0,0,0.8-0.3,2.6-0.3c7.1,0,12.8,5.8,12.8,12.9c0,5.7,0,9-6.6,11.3l-0.1,0c-1.7,0.6-5.5,1.9-9.1,7.8c-0.3-0.7-0.6-2.5,0-3.9
c-5.1-0.3-7.6,1-10.4,2.5c-1.8,1-3.8,2-6.7,2.7c-1.5,0.4-4.8,0.8-9.2,1.3l0,0c-10.7,1.3-27.5,3.3-38.3,7.5l37.8,1.7
c0.8-1.5,3.5-4.8,8.2-6c4.6-1.2,11,0.6,13.6,1.6c-0.3,0-0.7,0-1.1,0.1h0c-2.5,0.2-6.2,0.4-7,1c-4.1,2.7-9.2,4-13.7,5.1
c-3.9,1-7.4,1.9-9.5,3.5c6.1,0.6,21.3,0.6,33.1-4.6l8.7,4.8c1.5,4.7,0.4,15.9-15.6,22.5l0.1-0.2c1.1-2.9,3-8.2,0-10
c-1.3-0.7-4.8,1.6-9.5,4.8c-7.1,4.7-17.1,11.4-27,12.7c2.7-2.2,8.4-8.6,8.2-13.1c-0.2-4.5-8.9-6.6-19.4-6.6
c-16.7,0-32.4,8.2-44,14.4c-6.8,3.6-12.3,6.5-15.7,6.5c-4.2,0-7.3-1.9-6.8-9.7c-22.8,7.3-44.7,17.8-64.2,31.5v38.6h134.9
c58.2,0,105.5-47.2,105.5-105.5C316.3,263.6,269.1,216.4,210.9,216.4z M75.9,349.7c31.7-20.8,62.3-31.1,72.8-34.5
c-7.3-5.4-17.9-7.3-28.3-5.2c-25.9,6-37.3,10.6-44.4,13.5v7.2c11.7-3,24.9-7.5,41-16.4c7.5-4.1,15.7,1.4,15.7,2.7
c-20.9,6.1-39.8,14.4-56.7,24.8V349.7z"
    />
</svg>